<svg xmlns="http://www.w3.org/2000/svg" xmlns:xlink="http://www.w3.org/1999/xlink" xmlns:s="https://github.com/nturley/netlistsvg" width="358" height="216">
  <style>svg {
    stroke:#000;
    fill:none;
  }
  text {
    fill:#000;
    stroke:none;
    font-size:10px;
    font-weight: bold;
    font-family: "Courier New", monospace;
  }
  .nodelabel {
    text-anchor: middle;
  }
  .inputPortLabel {
    text-anchor: end;
  }
  .splitjoinBody {
    fill:#000;
  }</style>
  <g s:type="add" transform="translate(138.66666666666669,37)" s:width="25" s:height="25" id="cell_\6">
    <s:alias val="$add"/>
    <circle r="12.5" cx="12.5" cy="12.5" class="cell_\6"/>
    <line x1="7.5" x2="17.5" y1="12.5" y2="12.5" class="cell_\6"/>
    <line x1="12.5" x2="12.5" y1="7.5" y2="17.5" class="cell_\6"/>
    <g s:x="3" s:y="5" s:pid="A"/>
    <g s:x="3" s:y="20" s:pid="B"/>
    <g s:x="25" s:y="12.5" s:pid="Y"/>
  </g>
  <g s:type="mux" transform="translate(202,39.5)" s:width="20" s:height="40" id="cell_\8">
    <s:alias val="$pmux"/>
    <s:alias val="$mux"/>
    <s:alias val="$_MUX_"/>
    <path d="M0,0 L20,10 L20,30 L0,40 Z" class="cell_\8"/>
    <g s:x="0" s:y="10" s:pid="A"/>
    <g s:x="0" s:y="30" s:pid="B"/>
    <g s:x="10" s:y="35" s:pid="S"/>
    <g s:x="20" s:y="20" s:pid="Y"/>
  </g>
  <g s:type="sub" transform="translate(138.66666666666669,99)" s:width="25" s:height="25" id="cell_\9">
    <s:alias val="$sub"/>
    <circle r="12.5" cx="12.5" cy="12.5" class="cell_\9"/>
    <line x1="7.5" x2="17.5" y1="12.5" y2="12.5" class="cell_\9"/>
    <g s:x="3" s:y="5" s:pid="A"/>
    <g s:x="3" s:y="20" s:pid="B"/>
    <g s:x="25" s:y="12.5" s:pid="Y"/>
  </g>
  <g s:type="inputExt" transform="translate(12,184)" s:width="30" s:height="20" id="cell_a">
    <text x="15" y="-4" class="nodelabel cell_a" s:attribute="ref">a</text>
    <s:alias val="$_inputExt_"/>
    <path d="M0,0 L0,20 L15,20 L30,10 L15,0 Z" class="cell_a"/>
    <g s:x="28" s:y="10" s:pid="Y"/>
  </g>
  <g s:type="inputExt" transform="translate(12,22)" s:width="30" s:height="20" id="cell_b">
    <text x="15" y="-4" class="nodelabel cell_b" s:attribute="ref">b</text>
    <s:alias val="$_inputExt_"/>
    <path d="M0,0 L0,20 L15,20 L30,10 L15,0 Z" class="cell_b"/>
    <g s:x="28" s:y="10" s:pid="Y"/>
  </g>
  <g s:type="inputExt" transform="translate(137,169)" s:width="30" s:height="20" id="cell_m">
    <text x="15" y="-4" class="nodelabel cell_m" s:attribute="ref">m</text>
    <s:alias val="$_inputExt_"/>
    <path d="M0,0 L0,20 L15,20 L30,10 L15,0 Z" class="cell_m"/>
    <g s:x="28" s:y="10" s:pid="Y"/>
  </g>
  <g s:type="outputExt" transform="translate(316,39.5)" s:width="30" s:height="20" id="cell_r">
    <text x="15" y="-4" class="nodelabel cell_r" s:attribute="ref">r</text>
    <s:alias val="$_outputExt_"/>
    <path d="M30,0 L30,20 L15,20 L0,10 L15,0 Z" class="cell_r"/>
    <g s:x="0" s:y="10" s:pid="A"/>
  </g>
  <g s:type="outputExt" transform="translate(316,104.5)" s:width="30" s:height="20" id="cell_co">
    <text x="15" y="-4" class="nodelabel cell_co" s:attribute="ref">co</text>
    <s:alias val="$_outputExt_"/>
    <path d="M30,0 L30,20 L15,20 L0,10 L15,0 Z" class="cell_co"/>
    <g s:x="0" s:y="10" s:pid="A"/>
  </g>
  <g s:type="constant" transform="translate(12,119)" s:width="30" s:height="20" id="cell_0">
    <text x="15" y="-4" class="nodelabel cell_0" s:attribute="ref">0</text>
    <s:alias val="$_constant_"/>
    <rect width="30" height="20" class="cell_0"/>
    <g s:x="30" s:y="10" s:pid="Y"/>
  </g>
  <g s:type="join" transform="translate(96,21.5)" s:width="4" s:height="40" id="cell_$join$,10,11,12,13,14,15,16,17,46,">
    <rect width="5" height="40" class="splitjoinBody" s:generic="body"/>
    <s:alias val="$_join_"/>
    <g s:x="5" s:y="20" s:pid="out"/>
    <g transform="translate(0,10)" s:x="0" s:y="10" s:pid="in0">
      <text x="-3" y="-4" class="inputPortLabel">0:7</text>
    </g>
    <g transform="translate(0,30)" s:x="0" s:y="10" s:pid="in0">
      <text x="-3" y="-4" class="inputPortLabel">8</text>
    </g>
  </g>
  <g s:type="join" transform="translate(96,98.5)" s:width="4" s:height="40" id="cell_$join$,2,3,4,5,6,7,8,9,46,">
    <rect width="5" height="40" class="splitjoinBody" s:generic="body"/>
    <s:alias val="$_join_"/>
    <g s:x="5" s:y="20" s:pid="out"/>
    <g transform="translate(0,10)" s:x="0" s:y="10" s:pid="in0">
      <text x="-3" y="-4" class="inputPortLabel">0:7</text>
    </g>
    <g transform="translate(0,30)" s:x="0" s:y="10" s:pid="in0">
      <text x="-3" y="-4" class="inputPortLabel">8</text>
    </g>
  </g>
  <g s:type="split" transform="translate(257,39)" s:width="5" s:height="40" id="cell_$split$,19,20,21,22,23,24,25,26,27,">
    <rect width="5" height="40" class="splitjoinBody" s:generic="body"/>
    <s:alias val="$_split_"/>
    <g s:x="0" s:y="20" s:pid="in"/>
    <g transform="translate(4,10)" s:x="4" s:y="10" s:pid="out0">
      <text x="5" y="-4">0:7</text>
    </g>
    <g transform="translate(4,30)" s:x="4" s:y="10" s:pid="out0">
      <text x="5" y="-4">8</text>
    </g>
  </g>
  <line x1="102" x2="141.66666666666669" y1="42" y2="42" class="net_10,11,12,13,14,15,16,17,46"/>
  <line x1="102" x2="122" y1="42" y2="42" class="net_10,11,12,13,14,15,16,17,46"/>
  <line x1="122" x2="122" y1="42" y2="104" class="net_10,11,12,13,14,15,16,17,46"/>
  <circle cx="122" cy="42" r="2" style="fill:#000" class="net_10,11,12,13,14,15,16,17,46"/>
  <line x1="122" x2="141.66666666666669" y1="104" y2="104" class="net_10,11,12,13,14,15,16,17,46"/>
  <line x1="102" x2="112" y1="119" y2="119" class="net_2,3,4,5,6,7,8,9,46"/>
  <line x1="112" x2="112" y1="119" y2="57" class="net_2,3,4,5,6,7,8,9,46"/>
  <circle cx="112" cy="119" r="2" style="fill:#000" class="net_2,3,4,5,6,7,8,9,46"/>
  <line x1="112" x2="141.66666666666669" y1="57" y2="57" class="net_2,3,4,5,6,7,8,9,46"/>
  <line x1="102" x2="141.66666666666669" y1="119" y2="119" class="net_2,3,4,5,6,7,8,9,46"/>
  <line x1="163.66666666666669" x2="202" y1="49.5" y2="49.5" class="net_28,29,30,31,32,33,34,35,36"/>
  <line x1="163.66666666666669" x2="177" y1="111.5" y2="111.5" class="net_37,38,39,40,41,42,43,44,45"/>
  <line x1="177" x2="177" y1="111.5" y2="69.5" class="net_37,38,39,40,41,42,43,44,45"/>
  <line x1="177" x2="202" y1="69.5" y2="69.5" class="net_37,38,39,40,41,42,43,44,45"/>
  <line x1="165" x2="212" y1="179" y2="179" class="net_18"/>
  <line x1="212" x2="212" y1="179" y2="74.5" class="net_18"/>
  <line x1="262" x2="316" y1="49.5" y2="49.5" class="net_19,20,21,22,23,24,25,26"/>
  <line x1="262" x2="291" y1="69.5" y2="69.5" class="net_27"/>
  <line x1="291" x2="291" y1="69.5" y2="114.5" class="net_27"/>
  <line x1="291" x2="316" y1="114.5" y2="114.5" class="net_27"/>
  <line x1="40" x2="96" y1="32" y2="32" class="net_10,11,12,13,14,15,16,17"/>
  <line x1="42" x2="52" y1="129" y2="129" class="net_46"/>
  <line x1="52" x2="52" y1="129" y2="52" class="net_46"/>
  <circle cx="52" cy="129" r="2" style="fill:#000" class="net_46"/>
  <line x1="52" x2="96" y1="52" y2="52" class="net_46"/>
  <line x1="42" x2="96" y1="129" y2="129" class="net_46"/>
  <line x1="40" x2="62" y1="194" y2="194" class="net_2,3,4,5,6,7,8,9"/>
  <line x1="62" x2="62" y1="194" y2="109" class="net_2,3,4,5,6,7,8,9"/>
  <line x1="62" x2="96" y1="109" y2="109" class="net_2,3,4,5,6,7,8,9"/>
  <line x1="222" x2="257" y1="59.5" y2="59.5" class="net_19,20,21,22,23,24,25,26,27"/>
</svg>
